<svg xmlns="http://www.w3.org/2000/svg" viewBox="0 0 620 380" font-family="system-ui,Arial,sans-serif">
<rect width="620" height="380" fill="#ffffff"/>
<text x="310.0" y="28" text-anchor="middle" font-size="18" font-weight="600" fill="#1a1a1a">L1-D miss rate vs cache size (streaming)</text>
<line x1="60" y1="325.0" x2="595" y2="325.0" stroke="#e6e6e6"/>
<text x="52" y="329.0" text-anchor="end" font-size="11" fill="#666">0</text>
<line x1="60" y1="270.0" x2="595" y2="270.0" stroke="#e6e6e6"/>
<text x="52" y="274.0" text-anchor="end" font-size="11" fill="#666">3</text>
<line x1="60" y1="215.0" x2="595" y2="215.0" stroke="#e6e6e6"/>
<text x="52" y="219.0" text-anchor="end" font-size="11" fill="#666">6</text>
<line x1="60" y1="160.0" x2="595" y2="160.0" stroke="#e6e6e6"/>
<text x="52" y="164.0" text-anchor="end" font-size="11" fill="#666">9</text>
<line x1="60" y1="105.0" x2="595" y2="105.0" stroke="#e6e6e6"/>
<text x="52" y="109.0" text-anchor="end" font-size="11" fill="#666">11</text>
<line x1="60" y1="50.0" x2="595" y2="50.0" stroke="#e6e6e6"/>
<text x="52" y="54.0" text-anchor="end" font-size="11" fill="#666">14</text>
<path d="M 60.0 85.9 L 167.0 85.9 L 274.0 85.9 L 381.0 265.3 L 488.0 265.3 L 595.0 265.3" fill="none" stroke="#e74c3c" stroke-width="2.5"/>
<circle cx="60.0" cy="85.9" r="4" fill="#e74c3c"/>
<text x="60.0" y="343" text-anchor="middle" font-size="11" fill="#333">256</text>
<circle cx="167.0" cy="85.9" r="4" fill="#e74c3c"/>
<text x="167.0" y="343" text-anchor="middle" font-size="11" fill="#333">512</text>
<circle cx="274.0" cy="85.9" r="4" fill="#e74c3c"/>
<text x="274.0" y="343" text-anchor="middle" font-size="11" fill="#333">1024</text>
<circle cx="381.0" cy="265.3" r="4" fill="#e74c3c"/>
<text x="381.0" y="343" text-anchor="middle" font-size="11" fill="#333">2048</text>
<circle cx="488.0" cy="265.3" r="4" fill="#e74c3c"/>
<text x="488.0" y="343" text-anchor="middle" font-size="11" fill="#333">4096</text>
<circle cx="595.0" cy="265.3" r="4" fill="#e74c3c"/>
<text x="595.0" y="343" text-anchor="middle" font-size="11" fill="#333">8192</text>
<text x="310.0" y="372" text-anchor="middle" font-size="12" fill="#444">L1-D size (bytes)</text>
<text x="16" y="187.5" text-anchor="middle" font-size="12" fill="#444" transform="rotate(-90 16 187.5)">miss rate (%)</text>
</svg>