<svg xmlns="http://www.w3.org/2000/svg" viewBox="0 0 760 430" font-family="system-ui,Arial,sans-serif">
<rect width="760" height="430" fill="#ffffff"/>
<text x="380.0" y="28" text-anchor="middle" font-size="18" font-weight="600" fill="#1a1a1a">Branch prediction accuracy by predictor</text>
<line x1="60" y1="340.0" x2="740" y2="340.0" stroke="#e6e6e6"/>
<text x="52" y="344.0" text-anchor="end" font-size="11" fill="#666">0</text>
<line x1="60" y1="282.0" x2="740" y2="282.0" stroke="#e6e6e6"/>
<text x="52" y="286.0" text-anchor="end" font-size="11" fill="#666">20</text>
<line x1="60" y1="224.0" x2="740" y2="224.0" stroke="#e6e6e6"/>
<text x="52" y="228.0" text-anchor="end" font-size="11" fill="#666">40</text>
<line x1="60" y1="166.0" x2="740" y2="166.0" stroke="#e6e6e6"/>
<text x="52" y="170.0" text-anchor="end" font-size="11" fill="#666">60</text>
<line x1="60" y1="108.0" x2="740" y2="108.0" stroke="#e6e6e6"/>
<text x="52" y="112.0" text-anchor="end" font-size="11" fill="#666">80</text>
<line x1="60" y1="50.0" x2="740" y2="50.0" stroke="#e6e6e6"/>
<text x="52" y="54.0" text-anchor="end" font-size="11" fill="#666">100</text>
<text x="16" y="195.0" text-anchor="middle" font-size="12" fill="#444" transform="rotate(-90 16 195.0)">accuracy (%)</text>
<rect x="77.0" y="281.4" width="26.2" height="58.6" fill="#5b8def"/>
<rect x="104.2" y="167.2" width="26.2" height="172.8" fill="#9b59b6"/>
<rect x="131.4" y="108.6" width="26.2" height="231.4" fill="#2ecc71"/>
<rect x="158.6" y="51.7" width="26.2" height="288.3" fill="#e67e22"/>
<rect x="185.8" y="52.3" width="26.2" height="287.7" fill="#e74c3c"/>
<text x="145.0" y="358" text-anchor="middle" font-size="12" fill="#333">nested_loops</text>
<rect x="247.0" y="339.1" width="26.2" height="0.9" fill="#5b8def"/>
<rect x="274.2" y="51.8" width="26.2" height="288.2" fill="#9b59b6"/>
<rect x="301.4" y="50.9" width="26.2" height="289.1" fill="#2ecc71"/>
<rect x="328.6" y="50.9" width="26.2" height="289.1" fill="#e67e22"/>
<rect x="355.8" y="50.9" width="26.2" height="289.1" fill="#e74c3c"/>
<text x="315.0" y="358" text-anchor="middle" font-size="12" fill="#333">streaming</text>
<rect x="417.0" y="240.0" width="26.2" height="100.0" fill="#5b8def"/>
<rect x="444.2" y="190.0" width="26.2" height="150.0" fill="#9b59b6"/>
<rect x="471.4" y="140.0" width="26.2" height="200.0" fill="#2ecc71"/>
<rect x="498.6" y="150.0" width="26.2" height="190.0" fill="#e67e22"/>
<rect x="525.8" y="140.0" width="26.2" height="200.0" fill="#e74c3c"/>
<text x="485.0" y="358" text-anchor="middle" font-size="12" fill="#333">bubble_sort</text>
<rect x="587.0" y="132.9" width="26.2" height="207.1" fill="#5b8def"/>
<rect x="614.2" y="174.3" width="26.2" height="165.7" fill="#9b59b6"/>
<rect x="641.4" y="215.7" width="26.2" height="124.3" fill="#2ecc71"/>
<rect x="668.6" y="257.1" width="26.2" height="82.9" fill="#e67e22"/>
<rect x="695.8" y="215.7" width="26.2" height="124.3" fill="#e74c3c"/>
<text x="655.0" y="358" text-anchor="middle" font-size="12" fill="#333">gcd</text>
<rect x="60" y="390" width="12" height="12" fill="#5b8def"/>
<text x="76" y="401" font-size="11" fill="#333">static-NT</text>
<rect x="205" y="390" width="12" height="12" fill="#9b59b6"/>
<text x="221" y="401" font-size="11" fill="#333">bimodal-1bit</text>
<rect x="350" y="390" width="12" height="12" fill="#2ecc71"/>
<text x="366" y="401" font-size="11" fill="#333">bimodal-2bit</text>
<rect x="495" y="390" width="12" height="12" fill="#e67e22"/>
<text x="511" y="401" font-size="11" fill="#333">gshare</text>
<rect x="640" y="390" width="12" height="12" fill="#e74c3c"/>
<text x="656" y="401" font-size="11" fill="#333">tournament</text>
</svg>